# xmcd
# Copyright (C) 1995-1998 Ti Kan
#
# Track frame offsets:
#       150
#       15352
#       32544
#
# Disc length: 651 seconds
#
# Revision: 0
# Processed by: cddbd v1.5.2PL0 Copyright (c) Steve Scherf et al.
# Submitted via: CD-Transfer v1.0
#
DISCID=12028903
DTITLE=Anna Selina - 
DYEAR=1900
DGENRE=
TTITLE0=Wie Ein Engel Mit Gebrochenen Flügeln
TTITLE1=So Lang Oder Länger
TTITLE2=Blaue Blume
EXTD=
EXTT0=
EXTT1=
EXTT2=
PLAYORDER=
